<svg width="32" height="32" viewBox="0 0 32 32" fill="none" xmlns="http://www.w3.org/2000/svg">
<rect width="32" height="32" rx="16" fill="white"/>
<path d="M8.62784 15V11.3636H9.06818V12.983H11.0071V11.3636H11.4474V15H11.0071V13.3736H9.06818V15H8.62784ZM13.0748 15.0639C12.9019 15.0639 12.7451 15.0314 12.6042 14.9663C12.4634 14.9 12.3515 14.8047 12.2686 14.6804C12.1858 14.5549 12.1444 14.4034 12.1444 14.2259C12.1444 14.0696 12.1751 13.9429 12.2367 13.8459C12.2982 13.7476 12.3805 13.6707 12.4835 13.6151C12.5865 13.5594 12.7001 13.518 12.8244 13.4908C12.9499 13.4624 13.0759 13.4399 13.2026 13.4233C13.3683 13.402 13.5027 13.386 13.6056 13.3754C13.7098 13.3635 13.7856 13.344 13.8329 13.3168C13.8815 13.2895 13.9057 13.2422 13.9057 13.1747V13.1605C13.9057 12.9853 13.8578 12.8492 13.7619 12.7521C13.6672 12.6551 13.5234 12.6065 13.3304 12.6065C13.1304 12.6065 12.9735 12.6503 12.8599 12.7379C12.7463 12.8255 12.6664 12.919 12.6202 13.0185L12.2225 12.8764C12.2935 12.7107 12.3882 12.5817 12.5066 12.4893C12.6261 12.3958 12.7563 12.3307 12.8972 12.294C13.0392 12.2562 13.1789 12.2372 13.3162 12.2372C13.4038 12.2372 13.5044 12.2479 13.6181 12.2692C13.7329 12.2893 13.8436 12.3313 13.9501 12.3952C14.0578 12.4592 14.1472 12.5556 14.2182 12.6847C14.2892 12.8137 14.3248 12.9865 14.3248 13.2031V15H13.9057V14.6307H13.8844C13.856 14.6899 13.8087 14.7532 13.7424 14.8207C13.6761 14.8881 13.5879 14.9455 13.4778 14.9929C13.3677 15.0402 13.2334 15.0639 13.0748 15.0639ZM13.1387 14.6875C13.3044 14.6875 13.4441 14.6549 13.5577 14.5898C13.6725 14.5247 13.7589 14.4407 13.8169 14.3377C13.8761 14.2347 13.9057 14.1264 13.9057 14.0128V13.6293C13.888 13.6506 13.8489 13.6701 13.7885 13.6879C13.7293 13.7044 13.6607 13.7192 13.5826 13.7322C13.5056 13.7441 13.4305 13.7547 13.3571 13.7642C13.2849 13.7725 13.2263 13.7796 13.1813 13.7855C13.0724 13.7997 12.9706 13.8228 12.8759 13.8548C12.7824 13.8855 12.7066 13.9323 12.6486 13.995C12.5918 14.0566 12.5634 14.1406 12.5634 14.2472C12.5634 14.3928 12.6172 14.5028 12.725 14.5774C12.8339 14.6508 12.9718 14.6875 13.1387 14.6875ZM15.0896 15V12.2727H15.4944V12.6989H15.5299C15.5867 12.5533 15.6785 12.4402 15.8051 12.3597C15.9318 12.2781 16.0839 12.2372 16.2615 12.2372C16.4414 12.2372 16.5911 12.2781 16.7107 12.3597C16.8314 12.4402 16.9255 12.5533 16.993 12.6989H17.0214C17.0912 12.558 17.196 12.4461 17.3357 12.3633C17.4753 12.2792 17.6428 12.2372 17.8382 12.2372C18.082 12.2372 18.2815 12.3136 18.4365 12.4663C18.5916 12.6178 18.6691 12.8539 18.6691 13.1747V15H18.2501V13.1747C18.2501 12.9735 18.195 12.8297 18.085 12.7433C17.9749 12.6568 17.8453 12.6136 17.6961 12.6136C17.5044 12.6136 17.3558 12.6716 17.2504 12.7876C17.1451 12.9025 17.0924 13.0481 17.0924 13.2244V15H16.6663V13.1321C16.6663 12.977 16.616 12.8522 16.5154 12.7575C16.4147 12.6616 16.2851 12.6136 16.1265 12.6136C16.0176 12.6136 15.9158 12.6426 15.8211 12.7006C15.7276 12.7586 15.6518 12.8391 15.5938 12.9421C15.537 13.0439 15.5086 13.1617 15.5086 13.2955V15H15.0896ZM19.4353 15V12.2727H19.8401V12.6847H19.8685C19.9182 12.5497 20.0082 12.4402 20.1384 12.3562C20.2686 12.2721 20.4154 12.2301 20.5787 12.2301C20.6095 12.2301 20.648 12.2307 20.6942 12.2319C20.7403 12.2331 20.7752 12.2348 20.7989 12.2372V12.6634C20.7847 12.6598 20.7522 12.6545 20.7013 12.6474C20.6515 12.6391 20.5989 12.6349 20.5432 12.6349C20.4107 12.6349 20.2923 12.6628 20.1881 12.7184C20.0851 12.7728 20.0035 12.8486 19.9431 12.9457C19.8839 13.0415 19.8543 13.151 19.8543 13.2741V15H19.4353ZM22.3206 15.0568C22.0744 15.0568 21.8583 14.9982 21.6725 14.881C21.4878 14.7638 21.3434 14.5999 21.2393 14.3892C21.1363 14.1785 21.0848 13.9323 21.0848 13.6506C21.0848 13.3665 21.1363 13.1185 21.2393 12.9066C21.3434 12.6947 21.4878 12.5302 21.6725 12.413C21.8583 12.2958 22.0744 12.2372 22.3206 12.2372C22.5668 12.2372 22.7822 12.2958 22.9669 12.413C23.1527 12.5302 23.2971 12.6947 23.4001 12.9066C23.5043 13.1185 23.5564 13.3665 23.5564 13.6506C23.5564 13.9323 23.5043 14.1785 23.4001 14.3892C23.2971 14.5999 23.1527 14.7638 22.9669 14.881C22.7822 14.9982 22.5668 15.0568 22.3206 15.0568ZM22.3206 14.6804C22.5076 14.6804 22.6615 14.6325 22.7822 14.5366C22.903 14.4407 22.9923 14.3146 23.0503 14.1584C23.1083 14.0021 23.1373 13.8329 23.1373 13.6506C23.1373 13.4683 23.1083 13.2984 23.0503 13.141C22.9923 12.9835 22.903 12.8563 22.7822 12.7592C22.6615 12.6622 22.5076 12.6136 22.3206 12.6136C22.1336 12.6136 21.9797 12.6622 21.8589 12.7592C21.7382 12.8563 21.6488 12.9835 21.5908 13.141C21.5328 13.2984 21.5038 13.4683 21.5038 13.6506C21.5038 13.8329 21.5328 14.0021 21.5908 14.1584C21.6488 14.3146 21.7382 14.4407 21.8589 14.5366C21.9797 14.6325 22.1336 14.6804 22.3206 14.6804Z" fill="#FF0000"/>
<path d="M10.1366 21V17.3636H11.3653C11.6506 17.3636 11.8838 17.4151 12.0649 17.5181C12.2472 17.6199 12.3821 17.7578 12.4697 17.9318C12.5573 18.1058 12.6011 18.3 12.6011 18.5142C12.6011 18.7285 12.5573 18.9232 12.4697 19.0984C12.3833 19.2736 12.2496 19.4132 12.0684 19.5174C11.8873 19.6204 11.6553 19.6719 11.3724 19.6719H10.4917V19.2812H11.3582C11.5535 19.2812 11.7104 19.2475 11.8287 19.18C11.9471 19.1126 12.0329 19.0214 12.0862 18.9066C12.1407 18.7906 12.1679 18.6598 12.1679 18.5142C12.1679 18.3686 12.1407 18.2384 12.0862 18.1236C12.0329 18.0088 11.9465 17.9188 11.827 17.8537C11.7074 17.7874 11.5488 17.7543 11.3511 17.7543H10.577V21H10.1366ZM14.0562 21.0639C13.8834 21.0639 13.7265 21.0314 13.5857 20.9663C13.4448 20.9 13.3329 20.8047 13.2501 20.6804C13.1672 20.5549 13.1258 20.4034 13.1258 20.2259C13.1258 20.0696 13.1566 19.9429 13.2181 19.8459C13.2797 19.7476 13.3619 19.6707 13.4649 19.6151C13.5679 19.5594 13.6816 19.518 13.8058 19.4908C13.9313 19.4624 14.0574 19.4399 14.184 19.4233C14.3498 19.402 14.4841 19.386 14.5871 19.3754C14.6913 19.3635 14.767 19.344 14.8144 19.3168C14.8629 19.2895 14.8872 19.2422 14.8872 19.1747V19.1605C14.8872 18.9853 14.8392 18.8492 14.7433 18.7521C14.6486 18.6551 14.5048 18.6065 14.3119 18.6065C14.1118 18.6065 13.955 18.6503 13.8414 18.7379C13.7277 18.8255 13.6478 18.919 13.6017 19.0185L13.2039 18.8764C13.2749 18.7107 13.3696 18.5817 13.488 18.4893C13.6076 18.3958 13.7378 18.3307 13.8786 18.294C14.0207 18.2562 14.1604 18.2372 14.2977 18.2372C14.3853 18.2372 14.4859 18.2479 14.5995 18.2692C14.7143 18.2893 14.825 18.3313 14.9316 18.3952C15.0393 18.4592 15.1286 18.5556 15.1997 18.6847C15.2707 18.8137 15.3062 18.9865 15.3062 19.2031V21H14.8872V20.6307H14.8659C14.8374 20.6899 14.7901 20.7532 14.7238 20.8207C14.6575 20.8881 14.5693 20.9455 14.4593 20.9929C14.3492 21.0402 14.2148 21.0639 14.0562 21.0639ZM14.1201 20.6875C14.2858 20.6875 14.4255 20.6549 14.5392 20.5898C14.654 20.5247 14.7404 20.4407 14.7984 20.3377C14.8576 20.2347 14.8872 20.1264 14.8872 20.0128V19.6293C14.8694 19.6506 14.8303 19.6701 14.77 19.6879C14.7108 19.7044 14.6421 19.7192 14.564 19.7322C14.4871 19.7441 14.4119 19.7547 14.3385 19.7642C14.2663 19.7725 14.2077 19.7796 14.1627 19.7855C14.0538 19.7997 13.952 19.8228 13.8573 19.8548C13.7638 19.8855 13.6881 19.9323 13.6301 19.995C13.5732 20.0566 13.5448 20.1406 13.5448 20.2472C13.5448 20.3928 13.5987 20.5028 13.7064 20.5774C13.8153 20.6508 13.9532 20.6875 14.1201 20.6875ZM18.0028 18.8835L17.6264 18.9901C17.6027 18.9273 17.5678 18.8664 17.5217 18.8072C17.4767 18.7468 17.4151 18.6971 17.337 18.658C17.2589 18.619 17.1589 18.5994 17.0369 18.5994C16.87 18.5994 16.7309 18.6379 16.6197 18.7148C16.5096 18.7906 16.4545 18.8871 16.4545 19.0043C16.4545 19.1084 16.4924 19.1907 16.5682 19.2511C16.6439 19.3114 16.7623 19.3617 16.9233 19.402L17.3281 19.5014C17.572 19.5606 17.7537 19.6512 17.8732 19.7731C17.9928 19.8938 18.0526 20.0495 18.0526 20.2401C18.0526 20.3963 18.0076 20.536 17.9176 20.6591C17.8288 20.7822 17.7045 20.8793 17.5447 20.9503C17.3849 21.0213 17.1991 21.0568 16.9872 21.0568C16.709 21.0568 16.4788 20.9964 16.2965 20.8757C16.1142 20.755 15.9988 20.5786 15.9503 20.3466L16.348 20.2472C16.3859 20.3939 16.4575 20.504 16.5629 20.5774C16.6694 20.6508 16.8085 20.6875 16.9801 20.6875C17.1754 20.6875 17.3305 20.6461 17.4453 20.5632C17.5613 20.4792 17.6193 20.3786 17.6193 20.2614C17.6193 20.1667 17.5862 20.0874 17.5199 20.0234C17.4536 19.9583 17.3518 19.9098 17.2145 19.8778L16.7599 19.7713C16.5102 19.7121 16.3267 19.6204 16.2095 19.4961C16.0935 19.3706 16.0355 19.2138 16.0355 19.0256C16.0355 18.8717 16.0787 18.7356 16.1651 18.6172C16.2527 18.4988 16.3717 18.4059 16.522 18.3384C16.6735 18.271 16.8452 18.2372 17.0369 18.2372C17.3068 18.2372 17.5187 18.2964 17.6726 18.4148C17.8277 18.5331 17.9377 18.6894 18.0028 18.8835ZM19.4859 21.0639C19.3131 21.0639 19.1562 21.0314 19.0154 20.9663C18.8745 20.9 18.7626 20.8047 18.6798 20.6804C18.5969 20.5549 18.5555 20.4034 18.5555 20.2259C18.5555 20.0696 18.5863 19.9429 18.6478 19.8459C18.7094 19.7476 18.7916 19.6707 18.8946 19.6151C18.9976 19.5594 19.1112 19.518 19.2355 19.4908C19.361 19.4624 19.4871 19.4399 19.6137 19.4233C19.7794 19.402 19.9138 19.386 20.0168 19.3754C20.1209 19.3635 20.1967 19.344 20.2441 19.3168C20.2926 19.2895 20.3169 19.2422 20.3169 19.1747V19.1605C20.3169 18.9853 20.2689 18.8492 20.173 18.7521C20.0783 18.6551 19.9345 18.6065 19.7416 18.6065C19.5415 18.6065 19.3847 18.6503 19.271 18.7379C19.1574 18.8255 19.0775 18.919 19.0313 19.0185L18.6336 18.8764C18.7046 18.7107 18.7993 18.5817 18.9177 18.4893C19.0373 18.3958 19.1675 18.3307 19.3083 18.294C19.4504 18.2562 19.5901 18.2372 19.7274 18.2372C19.815 18.2372 19.9156 18.2479 20.0292 18.2692C20.144 18.2893 20.2547 18.3313 20.3612 18.3952C20.469 18.4592 20.5583 18.5556 20.6294 18.6847C20.7004 18.8137 20.7359 18.9865 20.7359 19.2031V21H20.3169V20.6307H20.2955C20.2671 20.6899 20.2198 20.7532 20.1535 20.8207C20.0872 20.8881 19.999 20.9455 19.8889 20.9929C19.7789 21.0402 19.6445 21.0639 19.4859 21.0639ZM19.5498 20.6875C19.7155 20.6875 19.8552 20.6549 19.9688 20.5898C20.0837 20.5247 20.1701 20.4407 20.2281 20.3377C20.2873 20.2347 20.3169 20.1264 20.3169 20.0128V19.6293C20.2991 19.6506 20.26 19.6701 20.1997 19.6879C20.1405 19.7044 20.0718 19.7192 19.9937 19.7322C19.9168 19.7441 19.8416 19.7547 19.7682 19.7642C19.696 19.7725 19.6374 19.7796 19.5924 19.7855C19.4835 19.7997 19.3817 19.8228 19.287 19.8548C19.1935 19.8855 19.1177 19.9323 19.0597 19.995C19.0029 20.0566 18.9745 20.1406 18.9745 20.2472C18.9745 20.3928 19.0284 20.5028 19.1361 20.5774C19.245 20.6508 19.3829 20.6875 19.5498 20.6875ZM21.9197 17.3636V21H21.5007V17.3636H21.9197Z" fill="#0075FF"/>
</svg>
